<svg id="Camada_x0020_1" xmlns="http://www.w3.org/2000/svg" width="28" height="28" viewBox="0 0 28 28">
  <path id="Caminho_37" data-name="Caminho 37" d="M14,0A14,14,0,1,1,0,14,14,14,0,0,1,14,0Zm0,1.055A12.938,12.938,0,1,1,1.055,14,12.935,12.935,0,0,1,14,1.055Z" fill="#374867" fill-rule="evenodd"/>
  <path id="Caminho_38" data-name="Caminho 38" d="M7.135,16.635h9.651c.026-.064.013-1.454-.013-1.557l-.051-.347a.191.191,0,0,0-.013-.09c0-.039-.013-.051-.013-.077a.82.82,0,0,1-.026-.09,1.307,1.307,0,0,0-.077-.322l-.013-.026c0-.013-.013-.026-.013-.039l-.026-.077-.206-.528c-.051-.116-.116-.219-.167-.322l-.064-.1a2.835,2.835,0,0,0-.27-.412l-.412-.489a.135.135,0,0,0-.039-.051l-.553-.489c-.026,0-.013,0-.039-.013l-.5-.322c-.154-.09-.309-.167-.463-.244l-.1-.039c-.039-.013-.1-.051-.142-.039a3.4,3.4,0,0,0-.386.5l-.051.051v.013h-.013l-.154.219a2.474,2.474,0,0,1-.167.219L12,13.032c-.026.051.013.039-.039.051s-.077-.077-.1-.1l-.077-.116a.4.4,0,0,1-.09-.116l-.335-.45a.707.707,0,0,1-.09-.116l-.5-.669L10.75,11.5l-.244-.335c-.039-.051-.142-.206-.193-.206a3.8,3.8,0,0,0-.476.206l-.257.129-.682.476h0l-.283.244-.592.695c-.013.026-.013.039-.026.064l-.373.618a3.976,3.976,0,0,0-.18.412c-.026.039-.013.039-.026.077s-.026.039-.026.077-.013.051-.026.077l-.077.219c-.026.116-.039.219-.064.322-.051.167-.051.347-.09.515-.013.116-.039,1.467,0,1.544Z" transform="translate(2.04 3.142)" fill="#374867" fill-rule="evenodd"/>
  <path id="Caminho_39" data-name="Caminho 39" d="M11.679,5.86h-.257c-.039.026-.129.013-.154.026-.09.013-.18.013-.257.026l-.219.064a2.556,2.556,0,0,0-.553.193l-.051.026a.109.109,0,0,1-.064.039,1.8,1.8,0,0,0-.335.206l-.257.206v.013L9.466,6.7a4.01,4.01,0,0,0-.412.515,2.015,2.015,0,0,0-.347.682l-.154.682a.967.967,0,0,0,0,.193,1.444,1.444,0,0,0,0,.335.791.791,0,0,0,.013.18,1.07,1.07,0,0,0,.026.167c0,.051.026.077.026.142a2.835,2.835,0,0,0,.373.888c.013.026,0,.013.013.026l.335.425c.026.039.064.064.09.1l.193.167a2.945,2.945,0,0,0,1.107.579,2.843,2.843,0,0,0,.631.116,3.745,3.745,0,0,0,.54-.013c.129-.026.257-.039.386-.077l.219-.064a2.792,2.792,0,0,0,.45-.193,2.84,2.84,0,0,0,.463-.3A3.3,3.3,0,0,0,14,10.634l.27-.437c0-.026,0-.013.013-.039a3.333,3.333,0,0,0,.257-.862.791.791,0,0,0,.013-.18,2.9,2.9,0,0,0,0-.335,1.64,1.64,0,0,0-.026-.347,2.391,2.391,0,0,0-.1-.463,3.636,3.636,0,0,0-.219-.515,3.4,3.4,0,0,0-.425-.6l-.206-.193h0c0-.013,0-.013-.013-.013l-.116-.1c-.039-.039-.077-.051-.116-.09a2.414,2.414,0,0,0-.463-.27,1.537,1.537,0,0,0-.335-.142L12,5.911a1.389,1.389,0,0,0-.244-.039.163.163,0,0,1-.077-.013Z" transform="translate(2.449 1.68)" fill="#374867" fill-rule="evenodd"/>
  <path id="Caminho_40" data-name="Caminho 40" d="M15.657,16.494h3.667V14.718c-.013-.026,0-.064-.013-.116s-.013-.051-.026-.116v-.129a.242.242,0,0,1-.026-.1l-.077-.322-.193-.553a3.262,3.262,0,0,0-.257-.463c-.039-.051-.064-.116-.1-.167a1.367,1.367,0,0,0-.116-.142l-.129-.142c-.026-.039-.026-.051-.064-.077l-.193-.193a1.349,1.349,0,0,0-.219-.18,1.481,1.481,0,0,0-.219-.18,4.47,4.47,0,0,0-.425-.232.323.323,0,0,0-.09-.051l-.244-.09c-.051-.013-.142.142-.193.206l-.013.013v.013h-.013v.013l-.566.746-.232.309-.167.219a.155.155,0,0,1-.064.064c-.039-.026-.579-.759-.6-.8l-.309-.4c-.051-.077-.09-.129-.142-.206-.051-.051-.116-.154-.167-.193a.627.627,0,0,1-.09.039.627.627,0,0,0-.09.039l-.09.039a.189.189,0,0,1-.051.026c-.013,0-.026.013-.039.013,0,.051,0,.051.039.077l.283.322c.1.116.244.322.347.463l.077.116c.013.026.013.051.039.077s.026.039.039.064l.064.129a.281.281,0,0,1,.039.064l.193.4c.013.039.039.09.051.142l.09.219.244,1.068a.759.759,0,0,0,.026.18l.013.4c.026.206-.026,1.081.013,1.171Z" transform="translate(4.043 3.283)" fill="#374867" fill-rule="evenodd"/>
  <path id="Caminho_41" data-name="Caminho 41" d="M3.59,14.628v1.866H7.257a5.342,5.342,0,0,0,.013-.8c0-.27.013-.528.026-.785,0-.051.013-.051.013-.09a.251.251,0,0,0,.013-.1l.051-.335a4.465,4.465,0,0,1,.129-.476l.039-.154a.537.537,0,0,1,.026-.077,5.091,5.091,0,0,1,.54-1.132c.013-.013.013-.013.013-.026s.013-.013.013-.026h.013v-.013l.142-.206c.064-.077.116-.154.18-.232.013-.026.026-.026.039-.051l.193-.219a.178.178,0,0,0,.039-.051c.077-.064.077-.051.077-.116l-.36-.154a6.291,6.291,0,0,0-.386.5A.135.135,0,0,1,8.029,12l-.039.039a.718.718,0,0,1-.064.1c-.039.064-.643.875-.695.9a.155.155,0,0,1-.064-.064L6.434,12a.269.269,0,0,1-.051-.077l-.232-.3c-.026-.026-.026-.051-.051-.077s-.051-.064-.064-.077c-.051-.039-.116.013-.18.039l-.18.077a3.181,3.181,0,0,0-.566.347l-.077.051c-.026.026-.051.039-.077.064l-.09.077c-.013,0-.013,0-.013.013l-.3.3a1.409,1.409,0,0,0-.129.142,6.129,6.129,0,0,0-.4.6c-.013.013-.013.013-.013.026l-.193.463-.142.515a1.242,1.242,0,0,0-.039.232c-.013.064-.013.18-.051.206Z" transform="translate(1.029 3.283)" fill="#374867" fill-rule="evenodd"/>
  <path id="Caminho_42" data-name="Caminho 42" d="M13.58,9.764a2.581,2.581,0,0,0,.077.721l.154.4a1.129,1.129,0,0,0,.154.27,2.289,2.289,0,0,0,.695.669c.026.026.051.026.09.051a3.273,3.273,0,0,0,.489.206,4.567,4.567,0,0,0,.6.077,2.724,2.724,0,0,0,.785-.142,2.934,2.934,0,0,0,.489-.257l.232-.193h.013v-.013c.013-.013.026-.013.039-.026l.244-.283c.013-.026.026-.039.039-.064H17.7l.244-.476a2.353,2.353,0,0,0,.1-.322.219.219,0,0,1,.013-.09.191.191,0,0,0,.013-.09l.026-.4a.911.911,0,0,1-.013-.193c-.013-.064-.026-.116-.039-.18a1.916,1.916,0,0,0-.309-.746,1.468,1.468,0,0,0-.27-.36c-.039-.039-.064-.051-.1-.09l-.09-.077c-.064-.051-.142-.1-.206-.154a2.582,2.582,0,0,0-.5-.244c-.051-.013-.116-.039-.154-.051a.191.191,0,0,1-.09-.013,2.155,2.155,0,0,0-1.107.039.163.163,0,0,0-.077.013l-.36.154a2.017,2.017,0,0,0-.386.257,3.451,3.451,0,0,0-.36.386,2.7,2.7,0,0,0-.347.695,1.916,1.916,0,0,0-.1.528Z" transform="translate(3.894 2.19)" fill="#374867" fill-rule="evenodd"/>
  <path id="Caminho_43" data-name="Caminho 43" d="M4.67,9.868a2.329,2.329,0,0,0,.051.515,2.289,2.289,0,0,0,.219.6c.013.026.026.026.039.051l.425.515v.013l.129.116a2.978,2.978,0,0,0,.45.27c.039.013.051.026.09.039l.1.039c.051.013.064.013.116.026l.219.064a.438.438,0,0,1,.129.013,1.881,1.881,0,0,0,.759-.039.283.283,0,0,0,.1-.013l.4-.154a1.829,1.829,0,0,0,.425-.27,1.861,1.861,0,0,0,.283-.27,3.207,3.207,0,0,0,.3-.4.047.047,0,0,0,.013-.039l.18-.45A2.3,2.3,0,0,0,9.135,9.43l-.167-.476L8.8,8.645c-.013-.013-.013-.026-.026-.039l-.3-.347c-.026-.026-.039-.026-.064-.051L8.17,8.015a1.6,1.6,0,0,0-.36-.193l-.09-.039a2.119,2.119,0,0,0-.939-.142c-.051,0-.09.013-.129.013a2.992,2.992,0,0,0-.463.1L6,7.834a.207.207,0,0,0-.09.051,1.509,1.509,0,0,0-.386.244l-.039.026A.341.341,0,0,1,5.4,8.22a2.418,2.418,0,0,0-.566.824L4.683,9.6a.521.521,0,0,0,0,.142.359.359,0,0,0-.013.129Z" transform="translate(1.339 2.189)" fill="#374867" fill-rule="evenodd"/>
</svg>
