<svg id="Camada_x0020_1" xmlns="http://www.w3.org/2000/svg" width="95" height="95" viewBox="0 0 95 95">
  <path id="Caminho_35" data-name="Caminho 35" d="M65.507,27.746C65.08,34.1,64.12,36.552,59.8,41.3c-1.708,1.921-3.789,3.736-5.657,5.5l-.16.16c-.213.107-.213.16-.427.267-1.121.64-.907.534-2.028.16a.481.481,0,0,1-.267-.053,12.2,12.2,0,0,1-1.654-.854l-.8-.587c-.107-.107-.267-.213-.374-.32a7.97,7.97,0,0,0-.747-.64,1.247,1.247,0,0,1-.374-.374c-.587-.48-2.028-2.188-2.775-1.067-.374.587.053,1.067.427,1.441l.053.053c.16.107.107.107.213.213L48,47.6a11.07,11.07,0,0,0,1.708,1.014L51.1,49.2c.427.16.374.107.48.32.107.8-.213,1.868-.053,2.935a7.233,7.233,0,0,0,.107,1.067c0,.32.053.48.053.8.053.16.107.427.16.64.053.267.053.48.107.747l.374,1.921c.16.694.213,1.334.374,2.028a1.23,1.23,0,0,1,.213.587l.854,2.295c-.694.32-1.868.427-2.669.694-.534.213-1.388.32-1.975.534l-7.365,1.921c-.16,0-.16.053-.32.107l-2.295.587c-.694.107-1.334.374-2.028.534l-4,1.014c-1.067.32-.854.213-1.174-.854-.64-1.708-.534-1.067,1.121-1.921.427-.213.8-.48,1.174-.694a11.758,11.758,0,0,0,1.708-1.121l1.548-1.334c.053-.107.053-.107.16-.16l1.228-1.388a1.622,1.622,0,0,0,.267-.374l.32-.534a21.34,21.34,0,0,0,2.242-7.9,25.235,25.235,0,0,0,.213-2.882.793.793,0,0,1,.053-.32c.053-.8,0-1.815.053-2.722.053-2.135-.053-4.323,0-6.511,0-2.295-.374-4.483-.32-6.831V30.308a8.657,8.657,0,0,1,.053-2.348c6.084-.107,12.222-.213,18.306-.267a36.921,36.921,0,0,1,5.444.053Zm-46.7,1.014c.961.16,2.615.961,3.362.907.961-.053.107-.854-.374-1.067-1.868-1.014-6.778-1.921-8.379-.107-.961,1.014.267,1.174,1.228.747a5.307,5.307,0,0,1,3.309-.64c.267.053.587.107.854.16Zm19.427-2.295a2.273,2.273,0,0,0,0-2.989,1.355,1.355,0,0,0-.534-.427,2.136,2.136,0,0,0-3.042.961C33.7,25.985,35.94,28.387,38.235,26.465ZM14.538,32.5c.854,1.121,2.295.907,3.469.427.534-.267,3.149-1.654,2.081-2.4-1.388-1.014-6.831-1.868-5.764,1.548C14.378,32.229,14.485,32.336,14.538,32.5Zm24.551,9.233a4.3,4.3,0,0,1-1.548,1.548,3.217,3.217,0,0,1-1.174.48,1.308,1.308,0,0,0-.64.213l-.267.267a1,1,0,0,0,.8,1.388,5.95,5.95,0,0,0,.694-.16,4.943,4.943,0,0,0,2.562-1.441.15.15,0,0,1,.267.107c-.053.427,0,1.654-.053,2.188a29.327,29.327,0,0,1-.213,4.323,23.027,23.027,0,0,1-1.494,6.831,12.494,12.494,0,0,1-.8,1.441A11.52,11.52,0,0,1,35.139,61.1a11.133,11.133,0,0,1-1.975,1.388,11.464,11.464,0,0,1-1.388.747,1.713,1.713,0,0,0-.267.16c-.854.32-.694.427-1.067-.854-.107-.267-.16-.534-.267-.8l-.213-.64a24.784,24.784,0,0,1-1.067-3.469c.107-.267,1.334-.64,1.654-.854,1.441-.907,3.736-3.042,4.323-4.75a11.731,11.731,0,0,0,.32-1.975,22.118,22.118,0,0,0,.107-3.2c-.053-.374-.053-.374-.267-.587a.872.872,0,0,0-1.281,0c-.48.534-.267,1.441-.267,2.135,0,.374-.053.427-.053.747-.053.267,0,.534-.053.8a4.859,4.859,0,0,1-.534,2.135c-1.014,1.334-2.669,3.1-4.323,3.629-3.789,1.228-7.045.961-10.941.961-.694,0-5.23.053-5.444-.053-.64-.267-.267-1.815-.16-2.348.213-1.388.48-2.775.694-4.216,0-.267-.961-.694-1.067-1.067.267-.053.053-.053.267-.213l1.281-1.067a1.776,1.776,0,0,1,.534-.32c0-.427-.213-.427-.48-.587l-.213-.107L11.87,46a6.664,6.664,0,0,1-.64-.427l.053-2.188c.107-.32.374-.107.374-.374,0-1.281.213-1.6-.694-1.548-1.014,0-3.576.267-2.989-1.441,1.174-2.508,2.935-4.483,4.163-6.938.8-1.494,1.121-1.921.534-3.576-.534-1.815.747-4.11,1.388-5.871.213-.587,1.014-3.149,1.388-3.416.64-.107,2.989,0,3.789,0h19c.747,0,.694.32.8,1.121a53.885,53.885,0,0,1,.427,9.287c-.107,1.975-.961-1.014-3.9.64a1.076,1.076,0,0,1-.587.16c-.907-1.921-1.121-4.11-1.868-6.084-.427-1.121-1.708-.961-1.708.107a19.924,19.924,0,0,0,.854,3.416c.16.64,1.6,6.3,1.975,6.4.8.107,2.348-4.163,4.11-2.188l.16.213c1.121,1.494,1.174,6.725.587,8.433ZM10.055,20.168a11.164,11.164,0,0,1,3.256.213c-.64,3.309-2.989,5.551-2.615,9.287v.213l.053.267c.213,1.281-.374,1.708-.961,2.829a36.793,36.793,0,0,1-2.669,4.7,6.812,6.812,0,0,0-1.388,2.775A2.137,2.137,0,0,0,7.76,43.064c.587.107,1.121.107,1.708.16a12.889,12.889,0,0,1,0,1.441c-.107.427-.64.747-.267,1.494a1.378,1.378,0,0,0,.48.48l.907.694c-.107.32-.053.213-.267.427-2.081,2.135.64,2.135.374,3.522-.374,1.921-1.334,4.857-.16,6.565a2.858,2.858,0,0,0,2.348.64c.961.053,1.868.053,2.775.053,1.708.107,3.736-.053,5.5-.053a24.439,24.439,0,0,0,5.23-.427c.8-.16.747.213.961.961.534,1.548,1.014,3.042,1.548,4.59a1.536,1.536,0,0,1,.053.694c-5.764,1.654-10.621,2.028-16.6,2.455-.854.053-3.843.534-4.43.16-.694-.374-.694-1.761-.747-2.508-.107-.694-.213-1.441-.32-2.135-.747-5.39-1.494-11.1-1.761-16.492a32.023,32.023,0,0,1,.32-6.4c.32-2.562.16-5.017.534-7.632.213-1.441.267-2.829.534-4.323.16-1.228.64-6.3,1.014-6.992.374-.427,1.975-.267,2.562-.267Zm28.073-2.242c-4.323-.053-8.7.053-13.022,0-1.174,0-9.874.16-10.14-.053-.64-.48-.747-3.1-.747-3.9.267-1.921,1.921-3.309,3.416-4.323A36.968,36.968,0,0,1,27.4,5.384,33.726,33.726,0,0,1,35.033,4a39.219,39.219,0,0,1,6.138-.053,23.421,23.421,0,0,1,3.256.374C52.058,5.7,58.035,7.839,62.2,14.831a26.482,26.482,0,0,1,2.829,6.725c.213.747-.48.587-1.067.587-5.551-.053-11.261.053-16.812.16a48.93,48.93,0,0,1-5.551.053c-.213-.16-.267-1.121-.32-1.388-.374-2.028-1.014-2.935-3.149-3.042ZM2.9,46.906a4.591,4.591,0,0,1,.053.854c.16,2.295.534,4.91.747,7.258.107.907.213,1.815.32,2.775.374,3.042.8,6.031,1.228,9.073.213,1.494.587,2.615,2.242,2.562.854-.053,1.921-.213,2.829-.267,5.657-.374,11.1-.694,16.652-2.028.907-.213,1.761-.427,2.669-.64.267,0,.427.907.534,1.228a6.531,6.531,0,0,1,.48,1.441c.107.32.16.374.267.694.107.374.16.48.534.427a.771.771,0,0,1,.374-.107L33,69.856c.32-.053.427-.16.747-.213a4.446,4.446,0,0,0,.8-.213l6.3-1.6c.267-.107.48-.107.747-.213L55.74,63.932a.951.951,0,0,0,.694-.32,37.54,37.54,0,0,1-1.761-3.736,1.256,1.256,0,0,0-.107-.427c-.16-.427-.213-.907-.32-1.281-.16-.694-.213-1.6-.427-2.348l-.213-1.388a5.154,5.154,0,0,1-.16-.961c-.053-.374-.053-.64-.107-.961a15,15,0,0,1-.053-1.548l.16-1.548.8-.48c.427-.267.8-.534,1.228-.854,4.91-4.27,9.82-8.593,11.261-15.211a27.729,27.729,0,0,0,.534-8.112l-.053-.427c-.053-.48-.053-1.014-.107-1.494A19.586,19.586,0,0,0,65.934,18.3C63.159,11.255,58.462,6.291,51.151,4c-1.014-.32-1.975-.587-2.989-.854l-.427-.053A34.071,34.071,0,0,0,41.6,2.182a40.472,40.472,0,0,0-4.43-.16,32.744,32.744,0,0,0-9.073,1.334c-1.228.374-2.455.694-3.683,1.067-.8.267-2.135.854-2.935,1.228-3.149,1.334-8.219,3.9-8.966,7.579a7.411,7.411,0,0,0,.16,3.416,4.846,4.846,0,0,1,.16,1.228,39.615,39.615,0,0,1-4.376.107c-.961.053-1.921,0-2.882.053A47.652,47.652,0,0,0,4.5,24.651c-.374,2.242-.534,4.7-.8,6.992-.213,2.081-.48,4.27-.64,6.4a77.915,77.915,0,0,0-.16,8.646v.213Z" transform="translate(12.361 8.706)" fill="#374867" fill-rule="evenodd"/>
  <path id="Caminho_36" data-name="Caminho 36" d="M47.5,0A47.5,47.5,0,1,1,0,47.5,47.5,47.5,0,0,1,47.5,0Zm0,3.576A43.9,43.9,0,1,1,3.576,47.5,43.915,43.915,0,0,1,47.5,3.576Z" fill="#374867" fill-rule="evenodd"/>
</svg>
