<svg xmlns="http://www.w3.org/2000/svg" width="33" height="19.529" viewBox="0 0 33 19.529">
  <path id="delivery" d="M23.525.194c2.861.664,3.956,2.337,5.328,4.64H23.525ZM6.8,5.027a.849.849,0,0,1,.967.9.967.967,0,0,1-.964.967H.966a.967.967,0,0,0,0,1.934h8.7a.967.967,0,1,1,0,1.934H.966a.967.967,0,0,0,0,1.934H3.093v2.9a.967.967,0,0,0,.967.967H6a3.707,3.707,0,0,0,7.264,0h9.817a3.707,3.707,0,0,0,7.264,0h1.686A.967.967,0,0,0,33,15.6V9.8C33,6.96,30.007,6.772,30,6.768H22.558a.967.967,0,0,1-.967-.967V0H4.06a.967.967,0,0,0-.967.967V3.094H1.933a.967.967,0,1,0,0,1.934ZM27.969,14.57a1.773,1.773,0,1,1-3.026,1.253A1.773,1.773,0,0,1,27.969,14.57Zm-17.08,0a1.773,1.773,0,1,1-3.026,1.253A1.773,1.773,0,0,1,10.889,14.57Zm0,0" transform="translate(0.001)" fill="#fff" fill-rule="evenodd"/>
</svg>
