<svg id="payment" xmlns="http://www.w3.org/2000/svg" width="30" height="30" viewBox="0 0 30 30">
  <g id="Grupo_34" data-name="Grupo 34" transform="translate(0 17.695)">
    <g id="Grupo_33" data-name="Grupo 33">
      <path id="Caminho_191" data-name="Caminho 191" d="M2.7,302H.879a.878.878,0,0,0-.879.879v10.547a.878.878,0,0,0,.879.879H2.7a2.64,2.64,0,0,0,2.637-2.637v-7.031A2.64,2.64,0,0,0,2.7,302Z" transform="translate(0 -302)" fill="#fff"/>
    </g>
  </g>
  <g id="Grupo_36" data-name="Grupo 36" transform="translate(10.664)">
    <g id="Grupo_35" data-name="Grupo 35">
      <path id="Caminho_192" data-name="Caminho 192" d="M191.668,0A9.654,9.654,0,0,0,184.2,15.785a7.844,7.844,0,0,1,3.023,1.652.692.692,0,0,0,.439.141h3.129a3.428,3.428,0,0,1,2.9,1.547A9.669,9.669,0,0,0,191.668,0Zm.9,13.9h-.018v1.037a.879.879,0,1,1-1.758,0V13.9a3.487,3.487,0,0,1-1.6-1.143.873.873,0,1,1,1.336-1.125c.475.563,1,.773,1.441.615a.879.879,0,0,0-.3-1.705,2.633,2.633,0,0,1-1.02-5.062c.035-.018.088-.018.141-.035V4.395a.879.879,0,0,1,1.758,0V5.449a3.457,3.457,0,0,1,1.3.773.883.883,0,1,1-1.231,1.266,1.189,1.189,0,0,0-1.283-.387.876.876,0,0,0,.334,1.688,2.636,2.636,0,0,1,.9,5.115Z" transform="translate(-182)" fill="#fff"/>
    </g>
  </g>
  <g id="Grupo_38" data-name="Grupo 38" transform="translate(7.09 17.358)">
    <g id="Grupo_37" data-name="Grupo 37">
      <path id="Caminho_193" data-name="Caminho 193" d="M143.646,298.288a1.609,1.609,0,0,0-.4-.439,1.741,1.741,0,0,0-2.373.176l-3.99,4.605-.123.141a2.593,2.593,0,0,1-1.934.844h-6.879a.879.879,0,0,1,0-1.758h5.42a1.763,1.763,0,0,0,1.758-1.758v-.018a1.759,1.759,0,0,0-1.758-1.74h-3.24a2.42,2.42,0,0,1-1.547-.58,6.16,6.16,0,0,0-7.576-.4v10.811a20.29,20.29,0,0,0,5.344.721h7.9a6.161,6.161,0,0,0,4.922-2.461l4.219-5.625A2.328,2.328,0,0,0,143.646,298.288Z" transform="translate(-121 -296.246)" fill="#fff"/>
    </g>
  </g>
</svg>
