<svg id="interface" xmlns="http://www.w3.org/2000/svg" width="30" height="30" viewBox="0 0 30 30">
  <g id="Grupo_39" data-name="Grupo 39">
    <path id="Caminho_194" data-name="Caminho 194" d="M27.5,17.826V5A2.5,2.5,0,0,0,25,2.5H21.875a.625.625,0,0,0-.625.625V6.25a1.25,1.25,0,1,1-1.665-1.171A.625.625,0,0,0,20,4.49V.625a.625.625,0,1,0-1.25,0V2.5H9.375a.625.625,0,0,0-.625.625V6.25A1.25,1.25,0,1,1,7.085,5.079.625.625,0,0,0,7.5,4.49V.625a.625.625,0,0,0-1.25,0V2.5H2.5A2.5,2.5,0,0,0,0,5V25a2.5,2.5,0,0,0,2.5,2.5H17.826A6.872,6.872,0,1,0,27.5,17.826Zm-11.25,5.3A6.845,6.845,0,0,0,16.517,25H2.5V10H25v6.517a6.857,6.857,0,0,0-8.75,6.608Zm9.192,2.317a.625.625,0,0,1-.884,0l-1.875-1.875a.625.625,0,0,1-.183-.442v-3.75a.625.625,0,1,1,1.25,0v3.491l1.692,1.692A.625.625,0,0,1,25.442,25.442Z" fill="#fff"/>
  </g>
</svg>
