<svg xmlns="http://www.w3.org/2000/svg" width="27.5" height="33" viewBox="0 0 27.5 33">
  <g id="_13-location" data-name="13-location" transform="translate(-8)">
    <g id="Glyph" transform="translate(8 0)">
      <path id="Caminho_189" data-name="Caminho 189" d="M21.75,0A13.765,13.765,0,0,0,8,13.75C8,22.571,20.379,32.3,20.906,32.71a1.375,1.375,0,0,0,1.689,0C23.121,32.3,35.5,22.571,35.5,13.75A13.766,13.766,0,0,0,21.75,0Zm0,24.75a11,11,0,1,1,11-11A11,11,0,0,1,21.75,24.75Z" transform="translate(-8 0)" fill="#fff"/>
      <path id="Caminho_190" data-name="Caminho 190" d="M29.625,12a9.625,9.625,0,1,0,9.625,9.625A9.625,9.625,0,0,0,29.625,12Zm5.5,13.75a1.375,1.375,0,0,1-1.375,1.375H25.5a1.375,1.375,0,0,1-1.375-1.375V17.5A1.375,1.375,0,0,1,25.5,16.125h2.75V20.25H31V16.125h2.75A1.375,1.375,0,0,1,35.125,17.5Z" transform="translate(-15.875 -7.875)" fill="#fff"/>
    </g>
  </g>
</svg>
