<?xml version="1.0" encoding="UTF-8"?>
<!DOCTYPE svg PUBLIC "-//W3C//DTD SVG 1.1//EN" "http://www.w3.org/Graphics/SVG/1.1/DTD/svg11.dtd">
<!-- Creator: CorelDRAW 2018 (64 Bit Versão de avaliação) -->
<svg xmlns="http://www.w3.org/2000/svg" xml:space="preserve" width="175px" height="61px" version="1.1" style="shape-rendering:geometricPrecision; text-rendering:geometricPrecision; image-rendering:optimizeQuality; fill-rule:evenodd; clip-rule:evenodd"
viewBox="0 0 175.27 60.78"
 xmlns:xlink="http://www.w3.org/1999/xlink">
 <defs>
  <style type="text/css">
   <![CDATA[
    .fil2 {fill:#FEFEFE}
    .fil1 {fill:#FEFEFE;fill-rule:nonzero}
    .fil0 {fill:#CFA350;fill-rule:nonzero}
   ]]>
  </style>
 </defs>
 <g id="Camada_x0020_1">
  <metadata id="CorelCorpID_0Corel-Layer"/>
  <path class="fil0" d="M0.01 60.78m5.45 -7.26l-2.14 4.4 -2.14 -4.4 -1.17 7.24 1.03 0 0.66 -4.02 1.62 3.42 1.63 -3.41 0.65 4.01 1.04 0 -1.18 -7.24z"/>
  <path class="fil0" d="M11.41 60.78m5.41 -0.02l1.11 0 -3.26 -7.24 -3.26 7.24 1.11 0 0.72 -1.6 2.86 0 0.72 1.6zm-3.14 -2.61l0.99 -2.2 0.99 2.2 -1.98 0zm0.83 -7.09l-1.17 1.9 1.06 0 1.61 -1.9 -1.5 0z"/>
  <path class="fil0" d="M22.7 60.78m2.67 -7.26c-0.47,0 -0.95,0.14 -1.34,0.38 -0.47,0.3 -0.8,0.78 -0.87,1.31 -0.14,1.3 1.12,1.99 2.14,2.18 0.71,0.13 1.54,0.68 1.47,1.35 -0.04,0.3 -0.22,0.55 -0.52,0.74 -0.97,0.57 -2.26,0.19 -2.75,-0.76l-0.8 0.64c0.58,0.92 1.53,1.4 2.54,1.4 1.14,0 2.42,-0.7 2.54,-1.9 0.12,-1.32 -1.09,-2.26 -2.52,-2.48 -0.31,-0.07 -0.62,-0.2 -0.83,-0.4 -0.19,-0.2 -0.29,-0.44 -0.27,-0.65 0.18,-1.13 2.12,-1 2.65,0.12l0.82 -0.64c-0.48,-0.84 -1.33,-1.29 -2.26,-1.29z"/>
  <path class="fil0" d="M32.57 60.78m5.06 -1.91c-0.49,0.55 -1.11,0.89 -1.74,0.89 -1.29,0 -2.32,-1.17 -2.32,-2.62 0,-1.44 1.03,-2.61 2.32,-2.61 0.64,0 1.26,0.34 1.77,0.9l0.7 -0.72c-0.37,-0.39 -0.76,-0.71 -1.16,-0.9 -0.42,-0.18 -0.87,-0.29 -1.31,-0.29 -0.45,0 -0.89,0.09 -1.31,0.28 -0.4,0.19 -0.77,0.46 -1.06,0.8 -0.62,0.68 -0.95,1.59 -0.95,2.54 0,0.95 0.33,1.86 0.95,2.54 0.3,0.35 0.67,0.61 1.06,0.8 0.41,0.19 0.84,0.3 1.31,0.3 0.46,0 0.91,-0.11 1.31,-0.3 0.38,-0.19 0.76,-0.48 1.16,-0.9l-0.73 -0.71z"/>
  <path class="fil0" d="M42.78 60.78m5.41 -0.02l1.11 0 -3.26 -7.24 -3.26 7.24 1.11 0 0.72 -1.6 2.87 0 0.71 1.6zm-3.14 -2.61l0.99 -2.2 0.99 2.2 -1.98 0z"/>
  <path class="fil0" d="M54.07 60.78m5.54 -0.02l-1.92 -3.25c0.9,-0.24 1.56,-1.03 1.56,-1.97 0,-1.11 -0.91,-2.02 -2.04,-2.02l-3.14 0 0 7.24 1.01 0 0 -3.21 0.92 0c0.35,0 0.67,0.2 0.85,0.49l1.6 2.72 1.16 0zm-2.4 -4.22l-2.13 0 0 -2.01 2.16 0c0.55,0 1,0.45 1,1.01 0,0.56 -0.45,1 -1.03,1z"/>
  <path class="fil0" d="M64.39 60.78m5.4 -0.02l1.11 0 -3.26 -7.24 -3.25 7.24 1.1 0 0.72 -1.6 2.87 0 0.71 1.6zm-3.14 -2.61l0.99 -2.2 0.99 2.2 -1.98 0z"/>
  <path class="fil0" d="M81.79 60.78m5.33 -7.26l-1.02 0 0 2.79 -3.3 0 0 -2.79 -1.01 0 0 7.24 1.01 0 0 -3.45 3.3 0 0 3.45 1.02 0 0 -7.24z"/>
  <path class="fil0" d="M91.89 60.78m3.33 0c1.93,0 3.33,-1.84 3.33,-3.64 0,-1.93 -1.52,-3.62 -3.33,-3.62 -1.95,0 -3.33,1.79 -3.33,3.62 0,1.9 1.45,3.64 3.33,3.64zm0 -6.25c1.27,0 2.31,1.17 2.31,2.61 0,1.45 -1.04,2.62 -2.31,2.62 -1.3,0 -2.33,-1.17 -2.33,-2.62 0,-1.44 1.03,-2.61 2.33,-2.61z"/>
  <path class="fil0" d="M102.97 60.78m2.67 -7.26c-0.47,0 -0.96,0.14 -1.35,0.38 -0.47,0.3 -0.79,0.78 -0.87,1.31 -0.14,1.3 1.12,1.99 2.14,2.18 0.71,0.13 1.55,0.68 1.47,1.35 -0.03,0.3 -0.22,0.55 -0.51,0.74 -0.98,0.57 -2.26,0.19 -2.75,-0.76l-0.8 0.64c0.57,0.92 1.52,1.4 2.54,1.4 1.14,0 2.42,-0.7 2.54,-1.9 0.11,-1.32 -1.1,-2.26 -2.52,-2.48 -0.32,-0.07 -0.62,-0.2 -0.84,-0.4 -0.18,-0.2 -0.29,-0.44 -0.27,-0.65 0.18,-1.13 2.12,-1 2.65,0.12l0.82 -0.64c-0.48,-0.84 -1.33,-1.29 -2.25,-1.29z"/>
  <path class="fil0" d="M112.83 60.78m5.18 -5.24c0,-1.11 -0.92,-2.02 -2.04,-2.02l-3.14 0 0 7.24 1.01 0 0 -3.21 2.25 0c1.03,0 1.92,-0.94 1.92,-2.01zm-2.04 1l-2.13 0 0 -2.01 2.16 0c0.55,0 0.99,0.45 0.99,1.01 0,0.56 -0.44,1 -1.02,1z"/>
  <path class="fil0" d="M122.78 60.78m1.01 -7.26l-1.01 0 0 7.24 1.01 0 0 -7.24z"/>
  <path class="fil0" d="M128.56 60.78m0 -7.26l0 1.01 2.17 0 0 6.23 1.01 0 0 -6.23 2.15 0 0 -1.01 -5.33 0z"/>
  <path class="fil0" d="M137.84 60.78m5.41 -0.02l1.11 0 -3.26 -7.24 -3.26 7.24 1.11 0 0.72 -1.6 2.86 0 0.72 1.6zm-3.14 -2.61l0.99 -2.2 0.99 2.2 -1.98 0z"/>
  <path class="fil0" d="M148.78 60.78m2.01 -1.02c-0.55,0 -1,-0.44 -1,-1.01l0 -5.23 -1.01 0 0 5.23c0,1.12 0.9,2.03 2.01,2.03l2.88 0 0 -1.02 -2.88 0z"/>
  <path class="fil0" d="M158.44 60.78m5.41 -0.02l1.11 0 -3.26 -7.24 -3.26 7.24 1.11 0 0.72 -1.6 2.87 0 0.71 1.6zm-3.14 -2.61l0.99 -2.2 0.99 2.2 -1.98 0z"/>
  <path class="fil0" d="M169.73 60.78m5.54 -0.02l-1.92 -3.25c0.9,-0.24 1.56,-1.03 1.56,-1.97 0,-1.11 -0.91,-2.02 -2.04,-2.02l-3.14 0 0 7.24 1.01 0 0 -3.21 0.92 0c0.35,0 0.67,0.2 0.85,0.49l1.6 2.72 1.16 0zm-2.4 -4.22l-2.13 0 0 -2.01 2.16 0c0.55,0 1,0.45 1,1.01 0,0.56 -0.45,1 -1.03,1z"/>
  <path class="fil1" d="M0 44.64m26.32 -23.12c2.64,-2.14 4.34,-5.41 4.34,-9.11 0,-6.48 -5.26,-11.67 -11.66,-11.67l-19 0 0 43.9 20.21 0c6.83,0 12.38,-5.55 12.38,-12.38 0,-4.62 -2.57,-8.61 -6.27,-10.74zm-6.11 18.85l-15.94 0 0 -16.15 16.86 0c4.13,0 7.19,3.91 7.19,8.04 0,4.48 -3.63,8.11 -8.11,8.11zm-1.21 -35.36c4.12,0 7.47,3.27 7.47,7.4 0,4.05 -3.49,7.54 -7.62,7.54l-14.58 0 0 -14.94 14.73 0z"/>
  <path class="fil1" d="M35.83 44.64m11.74 -4.27c-4.12,0 -7.47,-3.34 -7.47,-7.47l0 -32.16 -4.27 0 0 32.16c0,6.47 5.27,11.74 11.74,11.74l17.22 0 0 -4.27 -17.22 0z"/>
  <path class="fil1" d="M68.04 44.64m20.06 0c2.7,0 5.41,-0.64 7.9,-1.78 2.34,-1.14 4.48,-2.7 6.33,-4.77 3.77,-4.12 5.83,-9.6 5.83,-15.44 0,-5.83 -2.06,-11.31 -5.83,-15.43 -1.85,-2 -3.99,-3.63 -6.33,-4.77 -2.49,-1.14 -5.2,-1.71 -7.9,-1.71 -2.78,0 -5.41,0.57 -7.9,1.71 -2.42,1.14 -4.55,2.77 -6.4,4.77 -3.7,4.12 -5.76,9.6 -5.76,15.43 0,5.84 2.06,11.32 5.76,15.44 1.85,2.07 3.98,3.63 6.4,4.77 2.49,1.14 5.12,1.78 7.9,1.78zm0 -39.63c8.68,0 15.79,7.9 15.79,17.64 0,9.75 -7.11,17.72 -15.79,17.72 -8.75,0 -15.8,-7.97 -15.8,-17.72 0,-9.74 7.05,-17.64 15.8,-17.64z"/>
  <path class="fil1" d="M111.41 44.64m31.16 -9.46c-2.84,3.2 -6.76,5.19 -11.1,5.19 -8.75,0 -15.79,-7.97 -15.79,-17.72 0,-9.74 7.04,-17.64 15.79,-17.64 4.34,0 8.26,1.99 11.17,5.19l2.99 -3.06c-1.85,-1.92 -3.91,-3.55 -6.26,-4.69 -2.49,-1.14 -5.19,-1.71 -7.9,-1.71 -2.77,0 -5.4,0.57 -7.89,1.71 -2.42,1.14 -4.56,2.77 -6.41,4.77 -3.7,4.12 -5.76,9.6 -5.76,15.43 0,5.84 2.06,11.32 5.76,15.44 1.85,2.07 3.99,3.63 6.41,4.77 2.49,1.14 5.12,1.78 7.89,1.78 2.71,0 5.41,-0.64 7.9,-1.78 2.28,-1.14 4.41,-2.7 6.26,-4.7l-3.06 -2.98z"/>
  <polygon class="fil2" points="154.23,21.55 154.23,17.22 154.23,0.53 149.96,0.53 149.96,44.64 154.23,44.64 154.23,31.79 154.23,28.2 "/>
  <path class="fil1" d="M173.8 40.71c-3.99,-0.55 -7.53,-2.71 -10.09,-5.88 -2.63,-3.26 -4.23,-7.58 -4.23,-12.31 0,-4.72 1.6,-9.02 4.22,-12.26 2.56,-3.16 6.1,-5.31 10.1,-5.85l0 -3.33c-0.91,0.09 -1.8,0.25 -2.66,0.48 -1.04,0.27 -2.06,0.63 -3.06,1.09 -1.15,0.54 -2.24,1.21 -3.26,1.97 -1.06,0.8 -2.06,1.7 -2.98,2.7 -1.81,2.03 -3.22,4.4 -4.18,6.98 -0.95,2.57 -1.46,5.35 -1.46,8.22 0,2.87 0.51,5.65 1.46,8.22 0.96,2.58 2.37,4.95 4.18,6.98 0.9,1.01 1.87,1.91 2.92,2.68 1.04,0.78 2.15,1.45 3.32,2 0.99,0.46 2.02,0.83 3.06,1.12 0.87,0.23 1.75,0.41 2.66,0.51l0 -3.32zm-9.32 -6.5c2.49,3.09 5.96,5.16 9.87,5.56l0.44 0.05 0 5.3 -0.54 -0.05c-1.14,-0.09 -2.26,-0.29 -3.37,-0.59 -1.09,-0.3 -2.16,-0.7 -3.21,-1.18 -1.25,-0.59 -2.42,-1.29 -3.51,-2.1 -1.09,-0.81 -2.11,-1.75 -3.06,-2.81 -1.9,-2.13 -3.37,-4.61 -4.37,-7.3 -1,-2.68 -1.52,-5.58 -1.52,-8.57 0,-2.98 0.52,-5.88 1.52,-8.56 1,-2.69 2.47,-5.17 4.37,-7.3l0 0c0.96,-1.04 2,-1.99 3.12,-2.83 1.08,-0.81 2.23,-1.51 3.44,-2.08 1.05,-0.49 2.13,-0.87 3.23,-1.15 1.1,-0.29 2.22,-0.48 3.37,-0.56l0.53 -0.04 0 5.3 -0.44 0.04c-3.91,0.41 -7.39,2.46 -9.88,5.54 -2.48,3.07 -4,7.15 -4,11.64 0,4.5 1.52,8.6 4.01,11.69z"/>
 </g>
</svg>
