<?xml version="1.0" encoding="UTF-8"?>
<!DOCTYPE svg PUBLIC "-//W3C//DTD SVG 1.1//EN" "http://www.w3.org/Graphics/SVG/1.1/DTD/svg11.dtd">
<!-- Creator: CorelDRAW 2018 (64 Bit Versão de avaliação) -->
<svg xmlns="http://www.w3.org/2000/svg" xml:space="preserve" width="175px" height="61px" version="1.1" style="shape-rendering:geometricPrecision; text-rendering:geometricPrecision; image-rendering:optimizeQuality; fill-rule:evenodd; clip-rule:evenodd"
viewBox="0 0 177.18 61.44"
 xmlns:xlink="http://www.w3.org/1999/xlink">
 <defs>
  <style type="text/css">
   <![CDATA[
    .fil1 {fill:#082A4D}
    .fil0 {fill:#082A4D;fill-rule:nonzero}
    .fil2 {fill:#CCA352;fill-rule:nonzero}
   ]]>
  </style>
 </defs>
 <g id="Camada_x0020_1">
  <metadata id="CorelCorpID_0Corel-Layer"/>
  <g id="_2706312028400">
   <path class="fil0" d="M0 45.12m26.61 -23.37c2.66,-2.16 4.39,-5.47 4.39,-9.21 0,-6.54 -5.32,-11.79 -11.8,-11.79l-19.2 0 0 44.37 20.43 0c6.9,0 12.51,-5.61 12.51,-12.51 0,-4.67 -2.59,-8.7 -6.33,-10.86zm-6.18 19.06l-16.11 0 0 -16.33 17.04 0c4.17,0 7.26,3.96 7.26,8.13 0,4.53 -3.66,8.2 -8.19,8.2zm-1.23 -35.75c4.17,0 7.55,3.31 7.55,7.48 0,4.1 -3.52,7.63 -7.69,7.63l-14.74 0 0 -15.11 14.88 0z"/>
   <path class="fil0" d="M36.22 45.12m11.87 -4.31c-4.17,0 -7.55,-3.38 -7.55,-7.55l0 -32.51 -4.32 0 0 32.51c0,6.54 5.32,11.86 11.87,11.86l17.4 0 0 -4.31 -17.4 0z"/>
   <path class="fil0" d="M68.77 45.12m20.29 0c2.73,0 5.46,-0.64 7.98,-1.79 2.37,-1.15 4.53,-2.74 6.4,-4.82 3.81,-4.17 5.9,-9.71 5.9,-15.61 0,-5.9 -2.09,-11.43 -5.9,-15.61 -1.87,-2.01 -4.03,-3.66 -6.4,-4.81 -2.52,-1.16 -5.25,-1.73 -7.98,-1.73 -2.81,0 -5.47,0.57 -7.99,1.73 -2.44,1.15 -4.6,2.8 -6.47,4.81 -3.74,4.18 -5.83,9.71 -5.83,15.61 0,5.9 2.09,11.44 5.83,15.61 1.87,2.08 4.03,3.67 6.47,4.82 2.52,1.15 5.18,1.79 7.99,1.79zm0 -40.06c8.77,0 15.96,7.99 15.96,17.84 0,9.85 -7.19,17.91 -15.96,17.91 -8.85,0 -15.97,-8.06 -15.97,-17.91 0,-9.85 7.12,-17.84 15.97,-17.84z"/>
   <path class="fil0" d="M112.62 45.12m31.5 -9.56c-2.88,3.24 -6.83,5.25 -11.22,5.25 -8.84,0 -15.96,-8.06 -15.96,-17.91 0,-9.85 7.12,-17.84 15.96,-17.84 4.39,0 8.34,2.02 11.29,5.25l3.02 -3.09c-1.87,-1.94 -3.95,-3.59 -6.32,-4.74 -2.52,-1.16 -5.26,-1.73 -7.99,-1.73 -2.8,0 -5.46,0.57 -7.98,1.73 -2.45,1.15 -4.6,2.8 -6.47,4.81 -3.74,4.18 -5.83,9.71 -5.83,15.61 0,5.9 2.09,11.44 5.83,15.61 1.87,2.08 4.02,3.67 6.47,4.82 2.52,1.15 5.18,1.79 7.98,1.79 2.73,0 5.47,-0.64 7.99,-1.79 2.3,-1.15 4.45,-2.74 6.32,-4.75l-3.09 -3.02z"/>
   <polygon class="fil1" points="155.91,21.79 155.91,17.4 155.91,0.54 151.59,0.54 151.59,45.12 155.91,45.12 155.91,32.14 155.91,28.51 "/>
   <path class="fil0" d="M175.68 41.15c-4.03,-0.55 -7.61,-2.73 -10.2,-5.94 -2.65,-3.29 -4.27,-7.66 -4.27,-12.44 0,-4.77 1.61,-9.13 4.27,-12.4 2.59,-3.2 6.17,-5.37 10.2,-5.91l0 -3.37c-0.91,0.09 -1.81,0.26 -2.68,0.48 -1.06,0.27 -2.09,0.64 -3.09,1.1 -1.17,0.56 -2.27,1.23 -3.3,2 -1.08,0.81 -2.08,1.72 -3.01,2.73 -1.83,2.06 -3.26,4.45 -4.23,7.06 -0.96,2.6 -1.47,5.41 -1.47,8.31 0,2.9 0.51,5.71 1.47,8.31 0.97,2.61 2.4,5 4.23,7.05 0.91,1.02 1.89,1.93 2.95,2.71 1.05,0.79 2.17,1.46 3.36,2.02 1,0.46 2.03,0.84 3.09,1.13 0.87,0.24 1.77,0.41 2.68,0.52l0 -3.36zm-9.41 -6.57c2.52,3.12 6.03,5.21 9.97,5.63l0.45 0.04 0 5.36 -0.54 -0.05c-1.16,-0.09 -2.29,-0.3 -3.41,-0.6 -1.1,-0.3 -2.19,-0.7 -3.25,-1.19 -1.26,-0.59 -2.44,-1.3 -3.55,-2.12 -1.1,-0.83 -2.13,-1.77 -3.09,-2.85 -1.92,-2.15 -3.41,-4.65 -4.42,-7.37 -1,-2.71 -1.54,-5.64 -1.54,-8.66 0,-3.02 0.54,-5.95 1.54,-8.66 1.01,-2.72 2.5,-5.23 4.42,-7.38l0 0c0.97,-1.05 2.03,-2.01 3.15,-2.86 1.09,-0.81 2.25,-1.52 3.48,-2.1 1.07,-0.49 2.15,-0.88 3.26,-1.17 1.12,-0.28 2.25,-0.47 3.41,-0.56l0.54 -0.04 0 5.36 -0.45 0.04c-3.95,0.41 -7.46,2.49 -9.98,5.6 -2.52,3.1 -4.04,7.23 -4.04,11.77 0,4.54 1.53,8.69 4.05,11.81z"/>
  </g>
  <g id="_2706312031728">
   <path class="fil2" d="M0.01 61.44m5.51 -7.34l-2.16 4.45 -2.16 -4.45 -1.19 7.32 1.04 0 0.67 -4.06 1.64 3.46 1.64 -3.45 0.67 4.05 1.04 0 -1.19 -7.32z"/>
   <path class="fil2" d="M11.54 61.44m5.46 -0.02l1.12 0 -3.29 -7.32 -3.29 7.32 1.11 0 0.73 -1.61 2.9 0 0.72 1.61zm-3.17 -2.64l1 -2.22 1 2.22 -2 0zm0.83 -7.16l-1.17 1.91 1.07 0 1.62 -1.91 -1.52 0z"/>
   <path class="fil2" d="M22.95 61.44m2.7 -7.34c-0.48,0 -0.97,0.14 -1.36,0.38 -0.47,0.31 -0.81,0.8 -0.88,1.33 -0.14,1.31 1.13,2.01 2.17,2.2 0.71,0.13 1.55,0.69 1.48,1.37 -0.03,0.3 -0.22,0.56 -0.52,0.75 -0.99,0.57 -2.28,0.19 -2.78,-0.77l-0.81 0.65c0.58,0.93 1.54,1.41 2.57,1.41 1.15,0 2.44,-0.71 2.56,-1.92 0.12,-1.33 -1.1,-2.28 -2.54,-2.51 -0.32,-0.07 -0.63,-0.2 -0.84,-0.4 -0.19,-0.21 -0.3,-0.44 -0.28,-0.66 0.18,-1.14 2.14,-1.01 2.68,0.12l0.83 -0.64c-0.49,-0.86 -1.34,-1.31 -2.28,-1.31z"/>
   <path class="fil2" d="M32.92 61.44m5.12 -1.93c-0.5,0.56 -1.12,0.9 -1.75,0.9 -1.31,0 -2.36,-1.19 -2.36,-2.65 0,-1.46 1.05,-2.64 2.36,-2.64 0.64,0 1.27,0.35 1.78,0.91l0.71 -0.73c-0.38,-0.39 -0.77,-0.71 -1.18,-0.9 -0.42,-0.19 -0.88,-0.3 -1.31,-0.3 -0.47,0 -0.91,0.1 -1.34,0.29 -0.4,0.19 -0.77,0.46 -1.07,0.8 -0.63,0.69 -0.96,1.61 -0.96,2.57 0,0.97 0.33,1.88 0.96,2.57 0.31,0.36 0.68,0.62 1.07,0.81 0.42,0.19 0.86,0.3 1.34,0.3 0.46,0 0.91,-0.11 1.31,-0.3 0.38,-0.19 0.78,-0.49 1.18,-0.92l-0.74 -0.71z"/>
   <path class="fil2" d="M43.25 61.44m5.47 -0.02l1.12 0 -3.3 -7.32 -3.29 7.32 1.12 0 0.72 -1.61 2.9 0 0.73 1.61zm-3.18 -2.64l1 -2.22 1 2.22 -2 0z"/>
   <path class="fil2" d="M54.66 61.44m5.6 -0.02l-1.94 -3.29c0.91,-0.24 1.57,-1.03 1.57,-1.98 0,-1.13 -0.91,-2.05 -2.05,-2.05l-3.18 0 0 7.32 1.02 0 0 -3.24 0.93 0c0.36,0 0.68,0.2 0.86,0.49l1.61 2.75 1.18 0zm-2.42 -4.26l-2.16 0 0 -2.04 2.18 0c0.56,0 1.01,0.46 1.01,1.03 0,0.55 -0.45,1.01 -1.03,1.01z"/>
   <path class="fil2" d="M65.09 61.44m5.46 -0.02l1.12 0 -3.29 -7.32 -3.29 7.32 1.11 0 0.73 -1.61 2.9 0 0.72 1.61zm-3.17 -2.64l1 -2.22 1 2.22 -2 0z"/>
   <path class="fil2" d="M82.68 61.44m5.38 -7.34l-1.02 0 0 2.82 -3.34 0 0 -2.82 -1.02 0 0 7.32 1.02 0 0 -3.49 3.34 0 0 3.49 1.02 0 0 -7.32z"/>
   <path class="fil2" d="M92.89 61.44m3.36 0c1.95,0 3.37,-1.86 3.37,-3.68 0,-1.95 -1.54,-3.66 -3.37,-3.66 -1.97,0 -3.36,1.81 -3.36,3.66 0,1.92 1.46,3.68 3.36,3.68zm0 -6.32c1.29,0 2.34,1.18 2.34,2.64 0,1.46 -1.05,2.65 -2.34,2.65 -1.3,0 -2.35,-1.19 -2.35,-2.65 0,-1.46 1.05,-2.64 2.35,-2.64z"/>
   <path class="fil2" d="M104.09 61.44m2.69 -7.34c-0.47,0 -0.96,0.14 -1.35,0.38 -0.48,0.31 -0.81,0.8 -0.88,1.33 -0.14,1.31 1.13,2.01 2.16,2.2 0.72,0.13 1.56,0.69 1.49,1.37 -0.04,0.3 -0.23,0.56 -0.52,0.75 -0.99,0.57 -2.29,0.19 -2.79,-0.77l-0.8 0.65c0.58,0.93 1.54,1.41 2.56,1.41 1.16,0 2.45,-0.71 2.57,-1.92 0.12,-1.33 -1.1,-2.28 -2.54,-2.51 -0.32,-0.07 -0.63,-0.2 -0.85,-0.4 -0.19,-0.21 -0.29,-0.44 -0.27,-0.66 0.18,-1.14 2.14,-1.01 2.67,0.12l0.84 -0.64c-0.49,-0.86 -1.35,-1.31 -2.29,-1.31z"/>
   <path class="fil2" d="M114.06 61.44m5.23 -5.29c0,-1.13 -0.93,-2.05 -2.06,-2.05l-3.17 0 0 7.32 1.02 0 0 -3.24 2.27 0c1.05,0 1.94,-0.95 1.94,-2.03zm-2.06 1.01l-2.15 0 0 -2.04 2.18 0c0.55,0 1.01,0.46 1.01,1.03 0,0.55 -0.46,1.01 -1.04,1.01z"/>
   <path class="fil2" d="M124.11 61.44m1.03 -7.34l-1.03 0 0 7.32 1.03 0 0 -7.32z"/>
   <path class="fil2" d="M129.96 61.44m0 -7.34l0 1.02 2.19 0 0 6.3 1.02 0 0 -6.3 2.18 0 0 -1.02 -5.39 0z"/>
   <path class="fil2" d="M139.34 61.44m5.47 -0.02l1.12 0 -3.3 -7.32 -3.29 7.32 1.12 0 0.72 -1.61 2.9 0 0.73 1.61zm-3.17 -2.64l0.99 -2.22 1 2.22 -1.99 0z"/>
   <path class="fil2" d="M150.4 61.44m2.03 -1.03c-0.56,0 -1.01,-0.45 -1.01,-1.02l0 -5.29 -1.02 0 0 5.29c0,1.13 0.91,2.05 2.03,2.05l2.91 0 0 -1.03 -2.91 0z"/>
   <path class="fil2" d="M160.17 61.44m5.46 -0.02l1.12 0 -3.29 -7.32 -3.29 7.32 1.11 0 0.73 -1.61 2.9 0 0.72 1.61zm-3.17 -2.64l1 -2.22 1 2.22 -2 0z"/>
   <path class="fil2" d="M171.58 61.44m5.6 -0.02l-1.94 -3.29c0.9,-0.24 1.57,-1.03 1.57,-1.98 0,-1.13 -0.92,-2.05 -2.06,-2.05l-3.17 0 0 7.32 1.02 0 0 -3.24 0.93 0c0.35,0 0.67,0.2 0.85,0.49l1.62 2.75 1.18 0zm-2.43 -4.26l-2.15 0 0 -2.04 2.17 0c0.56,0 1.01,0.46 1.01,1.03 0,0.55 -0.45,1.01 -1.03,1.01z"/>
  </g>
 </g>
</svg>
