<?xml version="1.0" encoding="UTF-8"?>
<!DOCTYPE svg PUBLIC "-//W3C//DTD SVG 1.1//EN" "http://www.w3.org/Graphics/SVG/1.1/DTD/svg11.dtd">
<!-- Creator: CorelDRAW 2018 (64 Bit Versão de avaliação) -->
<svg xmlns="http://www.w3.org/2000/svg" xml:space="preserve" width="144px" height="50px" version="1.1" style="shape-rendering:geometricPrecision; text-rendering:geometricPrecision; image-rendering:optimizeQuality; fill-rule:evenodd; clip-rule:evenodd"
viewBox="0 0 144.9 50.553"
 xmlns:xlink="http://www.w3.org/1999/xlink">
 <defs>
  <style type="text/css">
   <![CDATA[
    .fil2 {fill:#FEFEFE}
    .fil0 {fill:#CC9F4E;fill-rule:nonzero}
    .fil1 {fill:#FEFEFE;fill-rule:nonzero}
   ]]>
  </style>
 </defs>
 <g id="Camada_x0020_1">
  <metadata id="CorelCorpID_0Corel-Layer"/>
  <path class="fil0" d="M0.267 50.553m4.524 -6.015l-1.775 3.646 -1.774 -3.646 -0.975 6.005 0.858 0 0.546 -3.334 1.345 2.837 1.346 -2.827 0.545 3.324 0.858 0 -0.974 -6.005z"/>
  <path class="fil0" d="M11.104 50.553m4.484 -0.01l0.916 0 -2.7 -6.005 -2.7 6.005 0.916 0 0.595 -1.326 2.378 0 0.595 1.326zm-2.603 -2.164l0.819 -1.823 0.819 1.823 -1.638 0z"/>
  <path class="fil0" d="M21.55 50.553m2.213 -6.015c-0.39,0 -0.789,0.117 -1.111,0.312 -0.39,0.254 -0.663,0.653 -0.721,1.092 -0.118,1.072 0.926,1.647 1.774,1.803 0.584,0.107 1.277,0.566 1.218,1.121 -0.029,0.244 -0.185,0.459 -0.429,0.615 -0.809,0.467 -1.871,0.156 -2.281,-0.634l-0.663 0.536c0.478,0.761 1.268,1.16 2.106,1.16 0.945,0 2.008,-0.585 2.106,-1.579 0.097,-1.092 -0.907,-1.872 -2.087,-2.057 -0.263,-0.058 -0.516,-0.166 -0.692,-0.331 -0.156,-0.166 -0.243,-0.361 -0.224,-0.537 0.146,-0.935 1.755,-0.828 2.193,0.098l0.683 -0.526c-0.4,-0.702 -1.102,-1.073 -1.872,-1.073z"/>
  <path class="fil0" d="M31.11 50.553m4.202 -1.579c-0.41,0.458 -0.927,0.74 -1.443,0.74 -1.073,0 -1.93,-0.974 -1.93,-2.173 0,-1.199 0.857,-2.165 1.93,-2.165 0.526,0 1.043,0.283 1.462,0.742l0.585 -0.595c-0.312,-0.322 -0.634,-0.585 -0.965,-0.741 -0.351,-0.156 -0.721,-0.244 -1.082,-0.244 -0.38,0 -0.741,0.078 -1.092,0.234 -0.332,0.156 -0.634,0.38 -0.877,0.663 -0.517,0.565 -0.79,1.316 -0.79,2.106 0,0.789 0.273,1.54 0.79,2.105 0.253,0.293 0.555,0.507 0.877,0.663 0.341,0.156 0.702,0.244 1.092,0.244 0.38,0 0.75,-0.088 1.082,-0.244 0.312,-0.156 0.633,-0.4 0.965,-0.751l-0.604 -0.584z"/>
  <path class="fil0" d="M40.962 50.553m4.484 -0.01l0.917 0 -2.7 -6.005 -2.701 6.005 0.917 0 0.594 -1.326 2.379 0 0.594 1.326zm-2.602 -2.164l0.819 -1.823 0.818 1.823 -1.637 0z"/>
  <path class="fil0" d="M51.701 50.553m4.592 -0.01l-1.589 -2.7c0.741,-0.195 1.286,-0.848 1.286,-1.628 0,-0.926 -0.75,-1.677 -1.686,-1.677l-2.603 0 0 6.005 0.839 0 0 -2.661 0.76 0c0.293,0 0.556,0.166 0.702,0.4l1.326 2.261 0.965 0zm-1.989 -3.499l-1.764 0 0 -1.668 1.784 0c0.458,0 0.828,0.371 0.828,0.839 0,0.458 -0.37,0.829 -0.848,0.829z"/>
  <path class="fil0" d="M61.632 50.553m4.484 -0.01l0.916 0 -2.7 -6.005 -2.7 6.005 0.916 0 0.595 -1.326 2.378 0 0.595 1.326zm-2.603 -2.164l0.819 -1.823 0.819 1.823 -1.638 0z"/>
  <path class="fil0" d="M72.078 50.553m2.213 -6.015c-0.39,0 -0.79,0.117 -1.111,0.312 -0.39,0.254 -0.663,0.653 -0.722,1.092 -0.117,1.072 0.927,1.647 1.774,1.803 0.585,0.107 1.278,0.566 1.219,1.121 -0.029,0.244 -0.185,0.459 -0.429,0.615 -0.809,0.467 -1.872,0.156 -2.281,-0.634l-0.663 0.536c0.478,0.761 1.267,1.16 2.106,1.16 0.945,0 2.008,-0.585 2.105,-1.579 0.098,-1.092 -0.906,-1.872 -2.086,-2.057 -0.263,-0.058 -0.516,-0.166 -0.692,-0.331 -0.156,-0.166 -0.244,-0.361 -0.224,-0.537 0.146,-0.935 1.755,-0.828 2.193,0.098l0.683 -0.526c-0.4,-0.702 -1.102,-1.073 -1.872,-1.073z"/>
  <path class="fil0" d="M86.707 50.553m4.591 -0.01l-1.588 -2.7c0.74,-0.195 1.286,-0.848 1.286,-1.628 0,-0.926 -0.75,-1.677 -1.686,-1.677l-2.603 0 0 6.005 0.839 0 0 -2.661 0.76 0c0.292,0 0.555,0.166 0.702,0.4l1.326 2.261 0.964 0zm-1.988 -3.499l-1.764 0 0 -1.668 1.783 0c0.458,0 0.829,0.371 0.829,0.839 0,0.458 -0.371,0.829 -0.848,0.829z"/>
  <path class="fil0" d="M96.637 50.553m1.521 -6.015l-0.838 0 0 6.005 0.838 0 0 -6.005zm-0.555 -2.047l-0.966 1.57 0.878 0 1.335 -1.57 -1.247 0z"/>
  <path class="fil0" d="M104.189 50.553m4.747 -0.985l0 -2.164 -2.125 0 0 0.839 1.287 0 0 1.043c-0.322,0.292 -0.712,0.428 -1.151,0.428 -1.072,0 -1.93,-0.974 -1.93,-2.173 0,-1.199 0.858,-2.165 1.93,-2.165 0.527,0 1.053,0.283 1.463,0.742l0.585 -0.595c-0.585,-0.585 -1.229,-0.985 -2.048,-0.985 -1.618,0 -2.758,1.492 -2.758,3.003 0,1.569 1.199,3.012 2.758,3.012 0.81,0 1.512,-0.38 1.989,-0.985z"/>
  <path class="fil0" d="M114.333 50.553m0.839 -6.015l-0.839 0 0 6.005 0.839 0 0 -6.005z"/>
  <path class="fil0" d="M120.51 50.553m5.001 -3.003c0,-1.627 -1.336,-2.982 -2.895,-3.012l-2.106 0 0 6.015 2.106 0c1.638,-0.059 2.895,-1.443 2.895,-3.003zm-2.895 -2.174c1.16,-0.009 2.057,1.014 2.057,2.174 0,1.16 -0.926,2.164 -2.057,2.164l-1.267 0 0 -4.338 1.267 0z"/>
  <path class="fil0" d="M130.167 50.553m4.484 -0.01l0.917 0 -2.7 -6.005 -2.701 6.005 0.917 0 0.594 -1.326 2.379 0 0.594 1.326zm-2.602 -2.164l0.819 -1.823 0.818 1.823 -1.637 0z"/>
  <path class="fil0" d="M140.614 50.553m2.213 -6.015c-0.39,0 -0.79,0.117 -1.112,0.312 -0.389,0.254 -0.663,0.653 -0.721,1.092 -0.117,1.072 0.926,1.647 1.774,1.803 0.585,0.107 1.277,0.566 1.219,1.121 -0.03,0.244 -0.186,0.459 -0.429,0.615 -0.809,0.467 -1.872,0.156 -2.281,-0.634l-0.663 0.536c0.477,0.761 1.267,1.16 2.105,1.16 0.946,0 2.009,-0.585 2.106,-1.579 0.097,-1.092 -0.906,-1.872 -2.086,-2.057 -0.263,-0.058 -0.517,-0.166 -0.692,-0.331 -0.156,-0.166 -0.244,-0.361 -0.224,-0.537 0.146,-0.935 1.754,-0.828 2.193,0.098l0.682 -0.526c-0.399,-0.702 -1.101,-1.073 -1.871,-1.073z"/>
  <path class="fil1" d="M0 37.005m21.822 -19.168c2.183,-1.769 3.598,-4.482 3.598,-7.549 0,-5.367 -4.364,-9.673 -9.673,-9.673l-15.747 0 0 36.39 16.75 0c5.662,0 10.262,-4.6 10.262,-10.262 0,-3.834 -2.123,-7.137 -5.19,-8.906zm-5.072 15.629l-13.211 0 0 -13.388 13.978 0c3.421,0 5.957,3.244 5.957,6.665 0,3.715 -3.008,6.723 -6.724,6.723zm-1.003 -29.312c3.421,0 6.193,2.713 6.193,6.134 0,3.362 -2.89,6.251 -6.31,6.251l-12.091 0 0 -12.385 12.208 0z"/>
  <path class="fil1" d="M29.705 37.005m9.731 -3.539c-3.421,0 -6.193,-2.772 -6.193,-6.192l0 -26.659 -3.538 0 0 26.659c0,5.367 4.364,9.731 9.731,9.731l14.273 0 0 -3.539 -14.273 0z"/>
  <path class="fil1" d="M56.4 37.005m16.633 0c2.241,0 4.482,-0.531 6.546,-1.474 1.947,-0.944 3.716,-2.242 5.249,-3.952 3.126,-3.421 4.837,-7.962 4.837,-12.798 0,-4.837 -1.711,-9.378 -4.837,-12.799 -1.533,-1.651 -3.302,-3.008 -5.249,-3.952 -2.064,-0.943 -4.305,-1.415 -6.546,-1.415 -2.301,0 -4.483,0.472 -6.547,1.415 -2.006,0.944 -3.775,2.301 -5.308,3.952 -3.067,3.421 -4.778,7.962 -4.778,12.799 0,4.836 1.711,9.377 4.778,12.798 1.533,1.71 3.302,3.008 5.308,3.952 2.064,0.943 4.246,1.474 6.547,1.474zm0 -32.851c7.195,0 13.093,6.546 13.093,14.627 0,8.08 -5.898,14.685 -13.093,14.685 -7.255,0 -13.094,-6.605 -13.094,-14.685 0,-8.081 5.839,-14.627 13.094,-14.627z"/>
  <path class="fil1" d="M92.357 37.005m25.833 -7.844c-2.36,2.654 -5.603,4.305 -9.201,4.305 -7.255,0 -13.094,-6.605 -13.094,-14.685 0,-8.081 5.839,-14.627 13.094,-14.627 3.598,0 6.841,1.651 9.259,4.305l2.478 -2.536c-1.534,-1.592 -3.244,-2.949 -5.19,-3.893 -2.065,-0.943 -4.306,-1.415 -6.547,-1.415 -2.3,0 -4.483,0.472 -6.547,1.415 -2.005,0.944 -3.775,2.301 -5.308,3.952 -3.067,3.421 -4.777,7.962 -4.777,12.799 0,4.836 1.71,9.377 4.777,12.798 1.533,1.71 3.303,3.008 5.308,3.952 2.064,0.943 4.247,1.474 6.547,1.474 2.241,0 4.482,-0.531 6.547,-1.474 1.887,-0.944 3.656,-2.242 5.19,-3.893l-2.536 -2.477z"/>
  <polygon class="fil2" points="127.856,17.866 127.856,14.273 127.856,0.443 124.317,0.443 124.317,37.006 127.856,37.006 127.856,26.356 127.856,23.377 "/>
  <path class="fil1" d="M144.074 33.745c-3.309,-0.449 -6.243,-2.241 -8.366,-4.871 -2.178,-2.699 -3.504,-6.285 -3.504,-10.202 0,-3.914 1.324,-7.484 3.5,-10.17 2.122,-2.619 5.059,-4.401 8.37,-4.845l0 -2.763c-0.75,0.078 -1.487,0.21 -2.205,0.397 -0.862,0.223 -1.707,0.524 -2.53,0.902 -0.959,0.455 -1.864,1.007 -2.71,1.64 -0.879,0.658 -1.702,1.41 -2.466,2.238 -1.501,1.685 -2.672,3.649 -3.465,5.787 -0.791,2.131 -1.208,4.436 -1.208,6.814 0,2.377 0.418,4.684 1.208,6.815 0.793,2.138 1.963,4.101 3.465,5.786 0.747,0.837 1.553,1.577 2.416,2.22 0.864,0.645 1.786,1.196 2.76,1.657 0.82,0.378 1.667,0.69 2.535,0.925 0.716,0.197 1.45,0.339 2.2,0.425l0 -2.755zm-7.725 -5.387c2.067,2.561 4.946,4.276 8.18,4.614l0.371 0.039 0 4.392 -0.447 -0.037c-0.947,-0.079 -1.879,-0.247 -2.795,-0.497 -0.904,-0.243 -1.794,-0.572 -2.666,-0.973 -1.034,-0.489 -2.002,-1.067 -2.906,-1.741 -0.906,-0.676 -1.753,-1.453 -2.539,-2.334 -1.571,-1.763 -2.795,-3.815 -3.623,-6.048 -0.824,-2.222 -1.259,-4.625 -1.259,-7.101 0,-2.477 0.435,-4.879 1.259,-7.101 0.828,-2.232 2.052,-4.285 3.623,-6.048l0.005 -0.005c0.796,-0.862 1.658,-1.65 2.584,-2.342 0.893,-0.669 1.845,-1.25 2.852,-1.726 0.872,-0.401 1.764,-0.72 2.675,-0.956 0.913,-0.235 1.846,-0.39 2.794,-0.461l0.443 -0.033 0 4.392 -0.371 0.038c-3.237,0.335 -6.119,2.039 -8.187,4.591 -2.06,2.542 -3.313,5.929 -3.313,9.651 0,3.724 1.256,7.128 3.32,9.686z"/>
  <path class="fil0" d="M0.267 50.553m4.524 -6.015l-1.775 3.646 -1.774 -3.646 -0.975 6.005 0.858 0 0.546 -3.334 1.345 2.837 1.346 -2.827 0.545 3.324 0.858 0 -0.974 -6.005z"/>
  <path class="fil0" d="M11.104 50.553m4.484 -0.01l0.916 0 -2.7 -6.005 -2.7 6.005 0.916 0 0.595 -1.326 2.378 0 0.595 1.326zm-2.603 -2.164l0.819 -1.823 0.819 1.823 -1.638 0z"/>
  <path class="fil0" d="M21.55 50.553m2.213 -6.015c-0.39,0 -0.789,0.117 -1.111,0.312 -0.39,0.254 -0.663,0.653 -0.721,1.092 -0.118,1.072 0.926,1.647 1.774,1.803 0.584,0.107 1.277,0.566 1.218,1.121 -0.029,0.244 -0.185,0.459 -0.429,0.615 -0.809,0.467 -1.871,0.156 -2.281,-0.634l-0.663 0.536c0.478,0.761 1.268,1.16 2.106,1.16 0.945,0 2.008,-0.585 2.106,-1.579 0.097,-1.092 -0.907,-1.872 -2.087,-2.057 -0.263,-0.058 -0.516,-0.166 -0.692,-0.331 -0.156,-0.166 -0.243,-0.361 -0.224,-0.537 0.146,-0.935 1.755,-0.828 2.193,0.098l0.683 -0.526c-0.4,-0.702 -1.102,-1.073 -1.872,-1.073z"/>
  <path class="fil0" d="M31.11 50.553m4.202 -1.579c-0.41,0.458 -0.927,0.74 -1.443,0.74 -1.073,0 -1.93,-0.974 -1.93,-2.173 0,-1.199 0.857,-2.165 1.93,-2.165 0.526,0 1.043,0.283 1.462,0.742l0.585 -0.595c-0.312,-0.322 -0.634,-0.585 -0.965,-0.741 -0.351,-0.156 -0.721,-0.244 -1.082,-0.244 -0.38,0 -0.741,0.078 -1.092,0.234 -0.332,0.156 -0.634,0.38 -0.877,0.663 -0.517,0.565 -0.79,1.316 -0.79,2.106 0,0.789 0.273,1.54 0.79,2.105 0.253,0.293 0.555,0.507 0.877,0.663 0.341,0.156 0.702,0.244 1.092,0.244 0.38,0 0.75,-0.088 1.082,-0.244 0.312,-0.156 0.633,-0.4 0.965,-0.751l-0.604 -0.584z"/>
  <path class="fil0" d="M40.962 50.553m4.484 -0.01l0.917 0 -2.7 -6.005 -2.701 6.005 0.917 0 0.594 -1.326 2.379 0 0.594 1.326zm-2.602 -2.164l0.819 -1.823 0.818 1.823 -1.637 0z"/>
  <path class="fil0" d="M51.701 50.553m4.592 -0.01l-1.589 -2.7c0.741,-0.195 1.286,-0.848 1.286,-1.628 0,-0.926 -0.75,-1.677 -1.686,-1.677l-2.603 0 0 6.005 0.839 0 0 -2.661 0.76 0c0.293,0 0.556,0.166 0.702,0.4l1.326 2.261 0.965 0zm-1.989 -3.499l-1.764 0 0 -1.668 1.784 0c0.458,0 0.828,0.371 0.828,0.839 0,0.458 -0.37,0.829 -0.848,0.829z"/>
  <path class="fil0" d="M61.632 50.553m4.484 -0.01l0.916 0 -2.7 -6.005 -2.7 6.005 0.916 0 0.595 -1.326 2.378 0 0.595 1.326zm-2.603 -2.164l0.819 -1.823 0.819 1.823 -1.638 0z"/>
  <path class="fil0" d="M72.078 50.553m2.213 -6.015c-0.39,0 -0.79,0.117 -1.111,0.312 -0.39,0.254 -0.663,0.653 -0.722,1.092 -0.117,1.072 0.927,1.647 1.774,1.803 0.585,0.107 1.278,0.566 1.219,1.121 -0.029,0.244 -0.185,0.459 -0.429,0.615 -0.809,0.467 -1.872,0.156 -2.281,-0.634l-0.663 0.536c0.478,0.761 1.267,1.16 2.106,1.16 0.945,0 2.008,-0.585 2.105,-1.579 0.098,-1.092 -0.906,-1.872 -2.086,-2.057 -0.263,-0.058 -0.516,-0.166 -0.692,-0.331 -0.156,-0.166 -0.244,-0.361 -0.224,-0.537 0.146,-0.935 1.755,-0.828 2.193,0.098l0.683 -0.526c-0.4,-0.702 -1.102,-1.073 -1.872,-1.073z"/>
  <path class="fil0" d="M86.707 50.553m4.591 -0.01l-1.588 -2.7c0.74,-0.195 1.286,-0.848 1.286,-1.628 0,-0.926 -0.75,-1.677 -1.686,-1.677l-2.603 0 0 6.005 0.839 0 0 -2.661 0.76 0c0.292,0 0.555,0.166 0.702,0.4l1.326 2.261 0.964 0zm-1.988 -3.499l-1.764 0 0 -1.668 1.783 0c0.458,0 0.829,0.371 0.829,0.839 0,0.458 -0.371,0.829 -0.848,0.829z"/>
  <path class="fil0" d="M96.637 50.553m1.521 -6.015l-0.838 0 0 6.005 0.838 0 0 -6.005zm-0.555 -2.047l-0.966 1.57 0.878 0 1.335 -1.57 -1.247 0z"/>
  <path class="fil0" d="M104.189 50.553m4.747 -0.985l0 -2.164 -2.125 0 0 0.839 1.287 0 0 1.043c-0.322,0.292 -0.712,0.428 -1.151,0.428 -1.072,0 -1.93,-0.974 -1.93,-2.173 0,-1.199 0.858,-2.165 1.93,-2.165 0.527,0 1.053,0.283 1.463,0.742l0.585 -0.595c-0.585,-0.585 -1.229,-0.985 -2.048,-0.985 -1.618,0 -2.758,1.492 -2.758,3.003 0,1.569 1.199,3.012 2.758,3.012 0.81,0 1.512,-0.38 1.989,-0.985z"/>
  <path class="fil0" d="M114.333 50.553m0.839 -6.015l-0.839 0 0 6.005 0.839 0 0 -6.005z"/>
  <path class="fil0" d="M120.51 50.553m5.001 -3.003c0,-1.627 -1.336,-2.982 -2.895,-3.012l-2.106 0 0 6.015 2.106 0c1.638,-0.059 2.895,-1.443 2.895,-3.003zm-2.895 -2.174c1.16,-0.009 2.057,1.014 2.057,2.174 0,1.16 -0.926,2.164 -2.057,2.164l-1.267 0 0 -4.338 1.267 0z"/>
  <path class="fil0" d="M130.167 50.553m4.484 -0.01l0.917 0 -2.7 -6.005 -2.701 6.005 0.917 0 0.594 -1.326 2.379 0 0.594 1.326zm-2.602 -2.164l0.819 -1.823 0.818 1.823 -1.637 0z"/>
  <path class="fil0" d="M140.614 50.553m2.213 -6.015c-0.39,0 -0.79,0.117 -1.112,0.312 -0.389,0.254 -0.663,0.653 -0.721,1.092 -0.117,1.072 0.926,1.647 1.774,1.803 0.585,0.107 1.277,0.566 1.219,1.121 -0.03,0.244 -0.186,0.459 -0.429,0.615 -0.809,0.467 -1.872,0.156 -2.281,-0.634l-0.663 0.536c0.477,0.761 1.267,1.16 2.105,1.16 0.946,0 2.009,-0.585 2.106,-1.579 0.097,-1.092 -0.906,-1.872 -2.086,-2.057 -0.263,-0.058 -0.517,-0.166 -0.692,-0.331 -0.156,-0.166 -0.244,-0.361 -0.224,-0.537 0.146,-0.935 1.754,-0.828 2.193,0.098l0.682 -0.526c-0.399,-0.702 -1.101,-1.073 -1.871,-1.073z"/>
  <path class="fil1" d="M0 37.005m21.822 -19.168c2.183,-1.769 3.598,-4.482 3.598,-7.549 0,-5.367 -4.364,-9.673 -9.673,-9.673l-15.747 0 0 36.39 16.75 0c5.662,0 10.262,-4.6 10.262,-10.262 0,-3.834 -2.123,-7.137 -5.19,-8.906zm-5.072 15.629l-13.211 0 0 -13.388 13.978 0c3.421,0 5.957,3.244 5.957,6.665 0,3.715 -3.008,6.723 -6.724,6.723zm-1.003 -29.312c3.421,0 6.193,2.713 6.193,6.134 0,3.362 -2.89,6.251 -6.31,6.251l-12.091 0 0 -12.385 12.208 0z"/>
  <path class="fil1" d="M29.705 37.005m9.731 -3.539c-3.421,0 -6.193,-2.772 -6.193,-6.192l0 -26.659 -3.538 0 0 26.659c0,5.367 4.364,9.731 9.731,9.731l14.273 0 0 -3.539 -14.273 0z"/>
  <path class="fil1" d="M56.4 37.005m16.633 0c2.241,0 4.482,-0.531 6.546,-1.474 1.947,-0.944 3.716,-2.242 5.249,-3.952 3.126,-3.421 4.837,-7.962 4.837,-12.798 0,-4.837 -1.711,-9.378 -4.837,-12.799 -1.533,-1.651 -3.302,-3.008 -5.249,-3.952 -2.064,-0.943 -4.305,-1.415 -6.546,-1.415 -2.301,0 -4.483,0.472 -6.547,1.415 -2.006,0.944 -3.775,2.301 -5.308,3.952 -3.067,3.421 -4.778,7.962 -4.778,12.799 0,4.836 1.711,9.377 4.778,12.798 1.533,1.71 3.302,3.008 5.308,3.952 2.064,0.943 4.246,1.474 6.547,1.474zm0 -32.851c7.195,0 13.093,6.546 13.093,14.627 0,8.08 -5.898,14.685 -13.093,14.685 -7.255,0 -13.094,-6.605 -13.094,-14.685 0,-8.081 5.839,-14.627 13.094,-14.627z"/>
  <path class="fil1" d="M92.357 37.005m25.833 -7.844c-2.36,2.654 -5.603,4.305 -9.201,4.305 -7.255,0 -13.094,-6.605 -13.094,-14.685 0,-8.081 5.839,-14.627 13.094,-14.627 3.598,0 6.841,1.651 9.259,4.305l2.478 -2.536c-1.534,-1.592 -3.244,-2.949 -5.19,-3.893 -2.065,-0.943 -4.306,-1.415 -6.547,-1.415 -2.3,0 -4.483,0.472 -6.547,1.415 -2.005,0.944 -3.775,2.301 -5.308,3.952 -3.067,3.421 -4.777,7.962 -4.777,12.799 0,4.836 1.71,9.377 4.777,12.798 1.533,1.71 3.303,3.008 5.308,3.952 2.064,0.943 4.247,1.474 6.547,1.474 2.241,0 4.482,-0.531 6.547,-1.474 1.887,-0.944 3.656,-2.242 5.19,-3.893l-2.536 -2.477z"/>
  <polygon class="fil2" points="127.856,17.866 127.856,14.273 127.856,0.443 124.317,0.443 124.317,37.006 127.856,37.006 127.856,26.356 127.856,23.377 "/>
  <path class="fil1" d="M144.074 33.745c-3.309,-0.449 -6.243,-2.241 -8.366,-4.871 -2.178,-2.699 -3.504,-6.285 -3.504,-10.202 0,-3.914 1.324,-7.484 3.5,-10.17 2.122,-2.619 5.059,-4.401 8.37,-4.845l0 -2.763c-0.75,0.078 -1.487,0.21 -2.205,0.397 -0.862,0.223 -1.707,0.524 -2.53,0.902 -0.959,0.455 -1.864,1.007 -2.71,1.64 -0.879,0.658 -1.702,1.41 -2.466,2.238 -1.501,1.685 -2.672,3.649 -3.465,5.787 -0.791,2.131 -1.208,4.436 -1.208,6.814 0,2.377 0.418,4.684 1.208,6.815 0.793,2.138 1.963,4.101 3.465,5.786 0.747,0.837 1.553,1.577 2.416,2.22 0.864,0.645 1.786,1.196 2.76,1.657 0.82,0.378 1.667,0.69 2.535,0.925 0.716,0.197 1.45,0.339 2.2,0.425l0 -2.755zm-7.725 -5.387c2.067,2.561 4.946,4.276 8.18,4.614l0.371 0.039 0 4.392 -0.447 -0.037c-0.947,-0.079 -1.879,-0.247 -2.795,-0.497 -0.904,-0.243 -1.794,-0.572 -2.666,-0.973 -1.034,-0.489 -2.002,-1.067 -2.906,-1.741 -0.906,-0.676 -1.753,-1.453 -2.539,-2.334 -1.571,-1.763 -2.795,-3.815 -3.623,-6.048 -0.824,-2.222 -1.259,-4.625 -1.259,-7.101 0,-2.477 0.435,-4.879 1.259,-7.101 0.828,-2.232 2.052,-4.285 3.623,-6.048l0.005 -0.005c0.796,-0.862 1.658,-1.65 2.584,-2.342 0.893,-0.669 1.845,-1.25 2.852,-1.726 0.872,-0.401 1.764,-0.72 2.675,-0.956 0.913,-0.235 1.846,-0.39 2.794,-0.461l0.443 -0.033 0 4.392 -0.371 0.038c-3.237,0.335 -6.119,2.039 -8.187,4.591 -2.06,2.542 -3.313,5.929 -3.313,9.651 0,3.724 1.256,7.128 3.32,9.686z"/>
 </g>
</svg>
